<svg data-name="Layer 1" xmlns="http://www.w3.org/2000/svg" viewBox="0 0 623.62 623.62">
  <path d="M623.62 311.81C623.62 484 484 623.62 311.81 623.62S0 484 0 311.81 139.6 0 311.81 0s311.81 139.6 311.81 311.81" fill="#fcee1c"/>
  <path d="M127.7 282.8l-6.59-11.31c5.33-3 10-7.65 11.76-12.65 2.08-5.75.83-9.38-2.78-10.68-3.83-1.39-6.32 1.63-10.42 6.16l-6.23 6.68c-4.85 5.38-12.19 9.48-21 6.29-10.09-3.65-14.89-15.57-10.31-28.23a29.85 29.85 0 0115.05-16.7l6.16 10.07c-4.52 2.91-7.59 6.1-9.33 10.92s-.83 8.48 2.65 9.73c3.74 1.35 6.53-2.14 10.57-6.69l5.94-6.62c5.69-6.35 12.32-9.2 20.92-6.09 10.11 3.65 15.82 15.24 10.58 29.74a35.61 35.61 0 01-16.97 19.38" fill="#231f20"/>
  <path d="M127.7 282.8l-6.59-11.31c5.33-3 10-7.65 11.76-12.65 2.08-5.75.83-9.38-2.78-10.68-3.83-1.39-6.32 1.63-10.42 6.16l-6.23 6.68c-4.85 5.38-12.19 9.48-21 6.29-10.09-3.65-14.89-15.57-10.31-28.23a29.85 29.85 0 0115.05-16.7l6.16 10.07c-4.52 2.91-7.59 6.1-9.33 10.92s-.83 8.48 2.65 9.73c3.74 1.35 6.53-2.14 10.57-6.69l5.94-6.62c5.69-6.35 12.32-9.2 20.92-6.09 10.11 3.65 15.82 15.24 10.58 29.74a35.61 35.61 0 01-16.97 19.38z" fill="none" stroke="#231f20" stroke-miterlimit="10" stroke-width="1.6"/>
  <path fill="#231f20" d="M106.76 189.6l9.25-11.35 19.34 15.76 14.11-17.32-19.34-15.76 9.24-11.34 50.19 40.88-9.24 11.35-20.96-17.07-14.11 17.32 20.95 17.07-9.24 11.35-50.19-40.89z"/>
  <path fill="none" stroke="#231f20" stroke-miterlimit="10" stroke-width="1.6" d="M106.76 189.6l9.25-11.35 19.34 15.76 14.11-17.32-19.34-15.76 9.24-11.34 50.19 40.88-9.24 11.35-20.96-17.07-14.11 17.32 20.95 17.07-9.24 11.35-50.19-40.89z"/>
  <path d="M181.87 154c-10.53-18.34-6.2-34.8 8.94-43.49s31.57-4 42.06 14.23 6.48 35.3-8.66 44-31.82 3.63-42.34-14.72m38-21.79c-6.46-11.26-15.1-15.13-22.76-10.74s-8.68 13.81-2.22 25.07 15.38 15.62 23 11.22 8.4-14.3 1.94-25.55" fill="#231f20"/>
  <path d="M181.87 154c-10.53-18.34-6.2-34.8 8.94-43.49s31.57-4 42.06 14.23 6.48 35.3-8.66 44-31.82 3.63-42.34-14.74zm38-21.79c-6.46-11.26-15.1-15.13-22.76-10.74s-8.68 13.81-2.22 25.07 15.38 15.62 23 11.22 8.43-14.28 1.97-25.53z" fill="none" stroke="#231f20" stroke-miterlimit="10" stroke-width="1.6"/>
  <path fill="#231f20" d="M249.91 86.34l14.43-2.43 4.39 26.08.35-.07 14.64-29.27 15.86-2.67-15.02 28.72 29.31 34.51-15.83 2.66-20.05-24.35-5.79 11.11 2.87 17.1-14.42 2.43-10.74-63.82z"/>
  <path fill="none" stroke="#231f20" stroke-miterlimit="10" stroke-width="1.6" d="M249.91 86.34l14.43-2.43 4.39 26.08.35-.07 14.64-29.27 15.86-2.67-15.02 28.72 29.31 34.51-15.83 2.66-20.05-24.35-5.79 11.11 2.87 17.1-14.42 2.43-10.74-63.82z"/>
  <path d="M323.78 112.6l5.9-34.22 14.42 2.48-6.1 35.7c-2.15 12.49 1 17.49 8.18 18.72s12-2.37 14.19-14.86l6.15-35.7 13.91 2.39-5.9 34.23c-3.69 21.41-14 29.23-30.5 26.39S320.1 134 323.78 112.6" fill="#231f20"/>
  <path d="M323.78 112.6l5.9-34.22 14.42 2.48-6.1 35.7c-2.15 12.49 1 17.49 8.18 18.72s12-2.37 14.19-14.86l6.15-35.7 13.91 2.39-5.9 34.23c-3.69 21.41-14 29.23-30.5 26.39S320.1 134 323.78 112.6z" fill="none" stroke="#231f20" stroke-miterlimit="10" stroke-width="1.6"/>
  <path d="M414.89 100.1l19.35 11c12.39 7 19.87 17.11 12.12 30.8-7.5 13.23-20.92 13.36-32.85 6.6l-7-3.94-10.82 19.11-12.69-7.25zm3.59 37.83c7 4 12.08 2.72 15.4-3.14s.77-10.15-6.12-14l-5.86-3.32-9.63 17z" fill="#231f20"/>
  <path d="M414.89 100.1l19.35 11c12.39 7 19.87 17.11 12.12 30.8-7.5 13.23-20.92 13.36-32.85 6.6l-7-3.94-10.82 19.11-12.69-7.25zm3.59 37.83c7 4 12.08 2.72 15.4-3.14s.77-10.15-6.12-14l-5.86-3.32-9.63 17z" fill="none" stroke="#231f20" stroke-miterlimit="10" stroke-width="1.6"/>
  <path d="M484.72 148.9l12.07 12.68-32.88 59.36-10.67-11.22L471.15 181c3.45-5.76 7.8-12.29 11.5-18.2l-.27-.29c-6 3.58-12.71 7.55-18.64 10.7l-29.61 16.45-10.32-10.85zM452.46 170l21.47 22.56-8.24 7.84-21.47-22.56z" fill="#231f20"/>
  <path d="M484.72 148.9l12.07 12.68-32.88 59.36-10.67-11.22L471.15 181c3.45-5.76 7.8-12.29 11.5-18.2l-.27-.29c-6 3.58-12.71 7.55-18.64 10.7l-29.61 16.45-10.32-10.85zM452.46 170l21.47 22.56-8.24 7.84-21.47-22.56z" fill="none" stroke="#231f20" stroke-miterlimit="10" stroke-width="1.6"/>
  <path d="M525.8 212.23l6.2 13.64-22.25 28.73-10.28 11.73.16.36c5.95-3.47 13.71-8.31 20.65-11.48l20.8-9.49 5.79 12.69L488 285.28l-6.22-13.64 22.35-28.77 10.2-11.69-.16-.36c-6.21 3.59-13.61 8.26-20.55 11.43l-20.9 9.54-5.79-12.69z" fill="#231f20"/>
  <path d="M525.8 212.23l6.2 13.64-22.25 28.73-10.28 11.73.16.36c5.95-3.47 13.71-8.31 20.65-11.48l20.8-9.49 5.79 12.69L488 285.28l-6.22-13.64 22.35-28.77 10.2-11.69-.16-.36c-6.21 3.59-13.61 8.26-20.55 11.43l-20.9 9.54-5.79-12.69z" fill="none" stroke="#231f20" stroke-miterlimit="10" stroke-width="1.6"/>
  <path d="M491.91 406.76c8.75-8.27 14.92-14.15 14.92-19.07 0-3.32-1.85-5.16-4.87-5.16-2.45 0-4.39 1.69-6.11 3.5l-4.31-4.29c3.38-3.62 6.59-5.45 11.51-5.45 6.78 0 11.4 4.32 11.4 10.95 0 5.79-5.41 12-11 17.79 1.77-.2 4.17-.4 5.76-.4h6.92v6.69h-24.22zM520.49 394c0-11.7 4.91-17.69 12.3-17.69s12.3 6 12.3 17.69-4.91 18-12.3 18-12.3-6.29-12.3-18m17.07 0c0-9.39-2.09-11.54-4.77-11.54S528 384.59 528 394s2.09 11.83 4.77 11.83 4.77-2.45 4.77-11.83M491.91 364.68c8.75-8.27 14.92-14.14 14.92-19.07 0-3.32-1.85-5.15-4.87-5.15-2.45 0-4.39 1.68-6.11 3.49l-4.31-4.29c3.38-3.62 6.59-5.45 11.51-5.45 6.78 0 11.4 4.33 11.4 11 0 5.79-5.41 12-11 17.78 1.77-.2 4.17-.4 5.76-.4h6.92v6.69h-24.22zM520.49 351.9c0-11.7 4.91-17.69 12.3-17.69s12.3 6 12.3 17.69-4.91 18-12.3 18-12.3-6.29-12.3-18m17.07 0c0-9.38-2.09-11.53-4.77-11.53S528 342.52 528 351.9s2.09 11.84 4.77 11.84 4.77-2.46 4.77-11.84M145.22 508H148l3.08 5.86 1.16 2.6h.07c-.12-1.25-.34-2.9-.34-4.29V508h2.55v11.79h-2.74l-3.07-5.88-1.17-2.57h-.07c.12 1.3.34 2.88.34 4.27v4.18h-2.54zM159.45 508h3.19l3.71 11.79h-2.83l-1.54-6c-.33-1.18-.64-2.57-1-3.8h.02c-.29 1.24-.6 2.62-.93 3.8l-1.55 6h-2.72zm-1.26 6.91h5.67V517h-5.67zM168.62 510.24h-3.25V508h9.16v2.24h-3.25v9.55h-2.66v-9.55zM176.31 514.33V508H179v6.6c0 2.31.72 3.11 2 3.11s2.09-.8 2.09-3.11V508h2.57v6.33c0 4-1.61 5.68-4.66 5.68s-4.71-1.72-4.71-5.68M188.42 508h4.25c2.5 0 4.55.87 4.55 3.67s-2.05 3.88-4.55 3.88h-1.59v4.24h-2.66zm4 5.43c1.4 0 2.15-.6 2.15-1.76s-.75-1.55-2.15-1.55h-1.37v3.31zm-.27 1.42l1.84-1.71 3.77 6.65h-3zM201.57 508h3.19l3.7 11.79h-2.82l-1.54-6c-.33-1.18-.65-2.57-1-3.8h-.07c-.29 1.24-.61 2.62-.93 3.8l-1.55 6h-2.73zm-1.26 6.91H206V517h-5.67zM209.6 508h2.67v9.56h4.65v2.23h-7.32V508zM218.98 508h2.67v9.56h4.65v2.23h-7.32V508zM228.83 515.59l-3.56-7.59h2.85l1.06 2.71c.31.88.62 1.7 1 2.61h.07c.34-.91.67-1.73 1-2.61l1-2.71h2.79l-3.56 7.59v4.2h-2.66zM239.48 508h7.44v2.24h-4.78v2.73h4.08v2.24h-4.08v4.58h-2.66V508zM248.96 508h7.39v2.24h-4.72v2.36h4.02v2.24h-4.02v2.72h4.9v2.23h-7.57V508zM258.88 508h4.25c2.5 0 4.55.87 4.55 3.67s-2.05 3.88-4.55 3.88h-1.58v4.24h-2.67zm4 5.43c1.4 0 2.15-.6 2.15-1.76s-.75-1.55-2.15-1.55h-1.37v3.31zm-.27 1.42l1.84-1.71 3.76 6.65h-3zM270 508h2.91l1.92 5.24c.23.7.44 1.45.67 2.18h.08c.23-.73.43-1.48.67-2.18l1.85-5.24h2.9v11.79h-2.43v-4.32c0-1.15.22-2.87.35-4h-.08l-1 2.79-1.66 4.52h-1.48l-1.67-4.52-.94-2.79H272c.13 1.14.34 2.86.34 4v4.32H270zM283.78 508h7.39v2.24h-4.72v2.36h4.02v2.24h-4.02v2.72h4.9v2.23h-7.57V508zM293.7 508h2.73l3.08 5.86 1.17 2.6h.07c-.12-1.25-.34-2.9-.34-4.29V508H303v11.79h-2.73l-3.08-5.88-1.19-2.57h-.07c.13 1.3.34 2.88.34 4.27v4.18h-2.57zM308.05 510.24h-3.25V508h9.16v2.24h-3.24v9.55h-2.67v-9.55zM315.81 508h7.39v2.24h-4.72v2.36h4.02v2.24h-4.02v2.72h4.9v2.23h-7.57V508zM325.73 508h3.34c3.6 0 5.92 1.79 5.92 5.85s-2.32 5.94-5.77 5.94h-3.49zm3.17 9.65c2 0 3.36-1 3.36-3.8s-1.36-3.7-3.36-3.7h-.5v7.5zM340.09 518.31l1.53-1.83a4.68 4.68 0 002.9 1.23c1.11 0 1.65-.44 1.65-1.14s-.67-1-1.7-1.4l-1.53-.66a3.43 3.43 0 01-2.38-3.21c0-1.95 1.75-3.51 4.2-3.51a5.43 5.43 0 013.79 1.54l-1.34 1.67a3.83 3.83 0 00-2.45-.92c-.92 0-1.5.38-1.5 1.05s.77 1 1.8 1.4l1.5.61a3.25 3.25 0 012.34 3.21c0 2-1.63 3.65-4.44 3.65a6.5 6.5 0 01-4.37-1.7M353.11 508h3.19l3.7 11.79h-2.82l-1.54-6c-.33-1.18-.64-2.57-1-3.8h-.07c-.28 1.24-.6 2.62-.93 3.8l-1.55 6h-2.72zm-1.26 6.91h5.67V517h-5.67zM361.15 508h2.73l3.08 5.86 1.16 2.6h.07c-.12-1.25-.34-2.9-.34-4.29V508h2.54v11.79h-2.73l-3.08-5.88-1.16-2.57h-.07c.12 1.3.34 2.88.34 4.27v4.18h-2.54zM373.19 508h3.33c3.6 0 5.92 1.79 5.92 5.85s-2.32 5.94-5.77 5.94h-3.48zm3.17 9.65c2 0 3.35-1 3.35-3.8s-1.35-3.7-3.35-3.7h-.51v7.5zM383.5 508h2.73l.82 5.51c.15 1.24.33 2.49.48 3.73h.07c.23-1.24.47-2.5.7-3.73l1.27-5.51h2.27l1.26 5.51c.24 1.2.48 2.47.71 3.73h.07c.16-1.26.32-2.52.48-3.73l.82-5.51h2.54l-2.09 11.79h-3.35l-1.16-5.35c-.19-.91-.34-1.86-.47-2.74h-.07c-.14.88-.29 1.83-.48 2.74l-1.1 5.35h-3.29zM399.37 508h2.67v11.79h-2.67zM404.26 514c0-3.92 2.59-6.19 5.57-6.19a5 5 0 013.54 1.53L412 511a2.93 2.93 0 00-2.08-.94c-1.62 0-2.9 1.42-2.9 3.79s1.13 3.83 2.85 3.83a3.13 3.13 0 002.31-1.1l1.41 1.67a4.86 4.86 0 01-3.81 1.73c-3 0-5.49-2.07-5.49-6M415.35 508h2.67v4.54h4.07V508h2.67v11.79h-2.67v-4.92h-4.07v4.92h-2.67V508zM431.18 508h4c2.44 0 4.34.67 4.34 2.92a2.73 2.73 0 01-1.55 2.55v.08a2.67 2.67 0 012.14 2.77c0 2.4-2 3.47-4.6 3.47h-4.37zm3.91 4.72c1.3 0 1.87-.55 1.87-1.4s-.61-1.26-1.85-1.26h-1.26v2.66zm.24 5c1.46 0 2.21-.52 2.21-1.59s-.74-1.46-2.21-1.46h-1.48v3zM442.13 508h4.25c2.5 0 4.55.87 4.55 3.67s-2.05 3.88-4.55 3.88h-1.58v4.24h-2.67zm4 5.43c1.41 0 2.16-.6 2.16-1.76s-.75-1.55-2.16-1.55h-1.33v3.31zm-.27 1.42l1.85-1.71 3.76 6.65h-3zM453.23 508h7.39v2.24h-4.72v2.36h4.02v2.24h-4.02v2.72h4.9v2.23h-7.57V508zM465.35 508h3.19l3.7 11.79h-2.82l-1.54-6c-.33-1.18-.65-2.57-1-3.8h-.07c-.29 1.24-.6 2.62-.93 3.8l-1.55 6h-2.73zm-1.26 6.91h5.67V517h-5.67zM473.38 508h3.34c3.6 0 5.92 1.79 5.92 5.85s-2.32 5.94-5.77 5.94h-3.49zm3.18 9.65c2 0 3.35-1 3.35-3.8s-1.35-3.7-3.35-3.7h-.51v7.5z" fill="#231f20"/>
  <path d="M317.91 411.25c-19.93 0-39.86.08-59.79 0-22.18-.11-36.87-15-36.87-37.15q0-49.11.06-98.23a11.52 11.52 0 00-3.05-8.18c-19-22-15.67-49.17 8-66.13 13-9.34 27.94-14.24 43.42-17.07 35.82-6.54 71.64-6.46 107.16 2.19 14.05 3.42 27.36 8.77 38.5 18.44 19.27 16.72 21.29 41.77 4.67 61.18a15.93 15.93 0 00-4.17 11.35q.24 48.92 0 97.83c-.08 17.68-11.33 32.15-28 34.86-8.77 1.43-17.89.86-26.85.94-14.39.12-28.78 0-43.17 0zm.72-24.11c19.81 0 39.62-.29 59.42.13 9.64.2 14-5 14-13.86-.22-32.75.23-65.5-.28-98.24-.15-9.48 1.86-16.67 9-23.39 10-9.37 8.62-21-2.13-29.56-6.95-5.5-15-8.71-23.38-11.22-14.11-4.23-28.6-6-43.25-6.71-23.72-1.14-47.21.09-70.15 6.77-9.55 2.79-18.75 6.42-26 13.63-7.52 7.49-8.09 16.55-1.57 24.91a48.33 48.33 0 006.47 6.94c3.52 3 4.57 6.62 4.55 11.19-.14 35.39-.08 70.78-.07 106.17 0 9.43 3.86 13.24 13.18 13.23h60.21"/>
  <path d="M266.55 285.28a17.37 17.37 0 0134.74 0M336 320.5a17.37 17.37 0 01-34.74 0M334.38 285.28a17.37 17.37 0 0134.74 0" fill="none" stroke="#000" stroke-linecap="round" stroke-miterlimit="10" stroke-width="25.6"/>
  <path d="M89.65 357.11L79 334.42h8.53l3.15 8.1c.94 2.65 1.86 5.09 2.87 7.82h.21c1-2.73 2-5.17 3-7.82l3.15-8.1h8.33l-10.61 22.69v12.58h-8zM119.93 353.35v-18.93h8v19.74c0 6.91 2.18 9.3 6.12 9.3s6.25-2.39 6.25-9.3v-19.74h7.7v18.93c0 11.84-4.81 17-13.94 17s-14.09-5.15-14.09-17M76.24 376.05h8.7l5.72 15.67c.71 2.08 1.33 4.34 2 6.51h.21c.71-2.17 1.31-4.43 2-6.51l5.55-15.67h8.7v35.27h-7.26v-12.94c0-3.44.64-8.57 1-12h-.22l-2.89 8.35-5 13.51H90.4l-5-13.51-2.82-8.35h-.21c.37 3.42 1 8.55 1 12v12.94h-7.13zM117.48 376.05h8.7l5.72 15.67c.71 2.08 1.33 4.34 2 6.51h.22c.71-2.17 1.3-4.43 2-6.51l5.55-15.67h8.7v35.27h-7.26v-12.94c0-3.44.64-8.57 1-12H144l-2.9 8.35-5 13.51h-4.43l-5-13.51-2.81-8.35h-.22c.38 3.42 1 8.55 1 12v12.94h-7.15zM263.76 454.37a1.3 1.3 0 01-.71.59c-4.26 20.44-14.83 32.58-32.47 38.78a28.55 28.55 0 00-2.48-3.12c16.72-5.45 27-17.48 30.21-33.82H223v-3.62h36.68l.75-.48z" fill="#231f20"/>
  <path d="M263.76 454.37a1.3 1.3 0 01-.71.59c-4.26 20.44-14.83 32.58-32.47 38.78a28.55 28.55 0 00-2.48-3.12c16.72-5.45 27-17.48 30.21-33.82H223v-3.62h36.68l.75-.48z" fill="none" stroke="#231f20" stroke-miterlimit="10" stroke-width="3"/>
  <path d="M313.43 453.45a1.72 1.72 0 01-.7.54c-2.11 21.09-9.28 32.42-27.3 39.7a22.2 22.2 0 00-2.69-2.91c17.21-7 23.95-17.26 25.73-35h-30.8v14.89H274v-18.51h35.76l.59-.44z" fill="#231f20"/>
  <path d="M313.43 453.45a1.72 1.72 0 01-.7.54c-2.11 21.09-9.28 32.42-27.3 39.7a22.2 22.2 0 00-2.69-2.91c17.21-7 23.95-17.26 25.73-35h-30.8v14.89H274v-18.51h35.76l.59-.44z" fill="none" stroke="#231f20" stroke-miterlimit="10" stroke-width="3"/>
  <path d="M363 454.37a1.32 1.32 0 01-.7.59c-4.27 20.44-14.84 32.58-32.48 38.78a28.55 28.55 0 00-2.48-3.12c16.72-5.45 27-17.48 30.21-33.82h-35.28v-3.62H359l.76-.48z" fill="#231f20"/>
  <path d="M363 454.37a1.32 1.32 0 01-.7.59c-4.27 20.44-14.84 32.58-32.48 38.78a28.55 28.55 0 00-2.48-3.12c16.72-5.45 27-17.48 30.21-33.82h-35.28v-3.62H359l.76-.48z" fill="none" stroke="#231f20" stroke-miterlimit="10" stroke-width="3"/>
  <path d="M412.67 453.45a1.72 1.72 0 01-.7.54c-2.1 21.09-9.28 32.42-27.29 39.7a22.29 22.29 0 00-2.7-2.91c17.21-7 23.95-17.26 25.73-35h-30.8v14.89h-3.72v-18.51H409l.59-.44z" fill="#231f20"/>
  <path d="M412.67 453.45a1.72 1.72 0 01-.7.54c-2.1 21.09-9.28 32.42-27.29 39.7a22.29 22.29 0 00-2.7-2.91c17.21-7 23.95-17.26 25.73-35h-30.8v14.89h-3.72v-18.51H409l.59-.44z" fill="none" stroke="#231f20" stroke-miterlimit="10" stroke-width="3"/>
</svg>
