<svg width="279" height="263" viewBox="0 0 279 263" fill="none" xmlns="http://www.w3.org/2000/svg">
<path d="M30.79 122.2L26.89 115.52C30.04 113.76 32.78 111 33.89 108.04C35.12 104.65 34.38 102.5 32.25 101.73C30.12 100.96 28.52 102.73 26.09 105.37L22.41 109.32C19.55 112.5 15.21 114.93 9.98 113.04C3.98 110.89 1.19 103.84 3.89 96.36C5.45924 92.0372 8.65197 88.4965 12.79 86.49L16.43 92.49C13.8918 93.9231 11.938 96.2025 10.91 98.93C9.91001 101.74 10.42 103.93 12.48 104.69C14.54 105.45 16.34 103.42 18.72 100.69L22.24 96.78C25.6 93.03 29.51 91.34 34.6 93.18C40.6 95.34 43.95 102.18 40.85 110.76C39.0417 115.695 35.4534 119.776 30.79 122.2Z" fill="#231F20" stroke="#231F20" stroke-width="0.8" stroke-miterlimit="10"/>
<path d="M18.42 67.13L23.88 60.42L35.31 69.73L43.65 59.5L32.22 50.19L37.68 43.48L67.34 67.64L61.87 74.35L49.49 64.26L41.15 74.5L53.53 84.58L48.07 91.29L18.42 67.13Z" fill="#231F20" stroke="#231F20" stroke-width="0.8" stroke-miterlimit="10"/>
<path d="M62.8 46.11C56.58 35.27 59.13 25.54 68.08 20.41C77.03 15.28 86.74 18.02 92.93 28.82C99.12 39.62 96.76 49.67 87.82 54.82C78.88 59.97 69 57 62.8 46.11ZM85.25 33.23C81.43 26.57 76.32 24.29 71.8 26.88C67.28 29.47 66.67 35.04 70.49 41.7C74.31 48.36 79.57 50.92 84.1 48.33C88.63 45.74 89.06 39.88 85.25 33.23V33.23Z" fill="#231F20" stroke="#231F20" stroke-width="0.8" stroke-miterlimit="10"/>
<path d="M103 6.11L111.53 4.67L114.12 20.08H114.33L122.98 2.78L132.35 1.2L123.48 18.2L140.79 38.59L131.44 40.16L119.6 25.71L116.17 32.28L117.87 42.39L109.35 43.82L103 6.11Z" fill="#231F20" stroke="#231F20" stroke-width="0.8" stroke-miterlimit="10"/>
<path d="M146.66 21.63L150.14 1.41L158.66 2.88L155 24C153.73 31.38 155.61 34.33 159.83 35.06C164.05 35.79 166.95 33.66 168.22 26.28L171.85 5.17999L180.07 6.60001L176.58 26.82C174.4 39.48 168.31 44.09 158.58 42.42C148.85 40.75 144.48 34.29 146.66 21.63Z" fill="#231F20" stroke="#231F20" stroke-width="0.8" stroke-miterlimit="10"/>
<path d="M200.49 14.24L211.92 20.72C219.25 24.87 223.67 30.83 219.09 38.92C214.66 46.74 206.73 46.81 199.67 42.82L195.56 40.49L189.16 51.78L181.64 47.52L200.49 14.24ZM202.61 36.6C206.75 38.94 209.75 38.2 211.72 34.74C213.69 31.28 212.17 28.74 208.1 26.44L204.63 24.44L198.94 34.44L202.61 36.6Z" fill="#231F20" stroke="#231F20" stroke-width="0.8" stroke-miterlimit="10"/>
<path d="M241.76 43.08L248.89 50.57L229.46 85.64L223.15 79L233.74 62C235.74 58.59 238.35 54.73 240.53 51.24L240.37 51.07C236.81 53.18 232.86 55.53 229.37 57.39L211.87 67.11L205.78 60.7L241.76 43.08ZM222.69 55.57L235.38 68.9L230.51 73.53L217.83 60.2L222.69 55.57Z" fill="#231F20" stroke="#231F20" stroke-width="0.8" stroke-miterlimit="10"/>
<path d="M266 80.5L269.68 88.56L256.51 105.56L250.44 112.49L250.54 112.7C254.05 110.65 258.64 107.79 262.74 105.92L275.03 100.31L278.45 107.81L243.65 123.69L240 115.61L253.21 98.61L259.21 91.7L259.11 91.48C255.44 93.61 251.11 96.37 246.97 98.24L234.62 103.88L231.2 96.38L266 80.5Z" fill="#231F20" stroke="#231F20" stroke-width="0.8" stroke-miterlimit="10"/>
<path d="M246 195.45C251.17 190.56 254.81 187.09 254.81 184.18C254.861 183.782 254.824 183.377 254.7 182.996C254.576 182.614 254.368 182.264 254.093 181.973C253.817 181.681 253.48 181.454 253.106 181.308C252.732 181.162 252.33 181.102 251.93 181.13C250.49 181.13 249.34 182.13 248.32 183.2L245.77 180.66C247.77 178.53 249.67 177.44 252.57 177.44C256.57 177.44 259.31 180 259.31 183.92C259.31 187.34 256.12 190.98 252.79 194.42C253.84 194.31 255.25 194.19 256.19 194.19H260.28V198.14H246V195.45Z" fill="#231F20"/>
<path d="M262.89 187.9C262.89 180.98 265.79 177.44 270.16 177.44C274.53 177.44 277.43 181.01 277.43 187.9C277.43 194.79 274.53 198.53 270.16 198.53C265.79 198.53 262.89 194.81 262.89 187.9ZM272.98 187.9C272.98 182.35 271.74 181.08 270.16 181.08C268.58 181.08 267.34 182.35 267.34 187.9C267.34 193.45 268.58 194.9 270.16 194.9C271.74 194.9 273 193.44 273 187.9H272.98Z" fill="#231F20"/>
<path d="M246 170.58C251.17 165.7 254.81 162.23 254.81 159.32C254.81 157.32 253.72 156.27 251.93 156.27C250.49 156.27 249.34 157.27 248.32 158.34L245.77 155.8C247.77 153.66 249.67 152.58 252.57 152.58C256.57 152.58 259.31 155.14 259.31 159.05C259.31 162.48 256.12 166.12 252.79 169.56C253.84 169.44 255.25 169.33 256.19 169.33H260.28V173.28H246V170.58Z" fill="#231F20"/>
<path d="M262.89 163C262.89 156.09 265.79 152.55 270.16 152.55C274.53 152.55 277.43 156.12 277.43 163C277.43 169.88 274.53 173.63 270.16 173.63C265.79 173.63 262.89 170 262.89 163ZM273 163C273 157.46 271.76 156.19 270.18 156.19C268.6 156.19 267.36 157.46 267.36 163C267.36 168.54 268.6 170 270.18 170C271.76 170 273 168.58 273 163Z" fill="#231F20"/>
<path d="M41.14 255.27H42.75L44.57 258.74L45.26 260.27C45.19 259.53 45.06 258.56 45.06 257.74V255.27H46.56V262.27H45L43.18 258.8L42.49 257.28C42.56 258.05 42.69 258.98 42.69 259.8V262.27H41.19L41.14 255.27Z" fill="#231F20"/>
<path d="M49.55 255.27H51.44L53.62 262.27H52L51.09 258.74C50.89 258.05 50.71 257.22 50.52 256.5C50.35 257.23 50.16 258.05 49.97 258.74L49.05 262.27H47.44L49.55 255.27ZM48.81 259.36H52.16V260.58H48.81V259.36Z" fill="#231F20"/>
<path d="M55 256.59H53.08V255.27H58.49V256.59H56.57V262.24H55V256.59Z" fill="#231F20"/>
<path d="M59.51 259V255.26H61.09V259.16C61.09 260.53 61.52 261 62.3 261C63.08 261 63.53 260.53 63.53 259.16V255.26H65.05V259C65.05 261.34 64.05 262.36 62.3 262.36C60.55 262.36 59.51 261.35 59.51 259Z" fill="#231F20"/>
<path d="M66.67 255.27H69.18C70.66 255.27 71.87 255.79 71.87 257.44C71.87 259.09 70.66 259.74 69.18 259.74H68.24V262.24H66.67V255.27ZM69.05 258.48C69.88 258.48 70.32 258.13 70.32 257.48C70.32 256.83 69.88 256.56 69.05 256.56H68.24V258.56L69.05 258.48ZM68.89 259.32L69.98 258.32L72.2 262.25H70.44L68.89 259.32Z" fill="#231F20"/>
<path d="M74.44 255.27H76.32L78.51 262.27H76.84L75.93 258.74C75.74 258.05 75.55 257.22 75.37 256.5H75.32C75.15 257.23 74.97 258.05 74.77 258.74L73.86 262.27H72.25L74.44 255.27ZM73.69 259.36H77V260.58H73.65L73.69 259.36Z" fill="#231F20"/>
<path d="M79.18 255.27H80.76V260.92H83.51V262.24H79.18V255.27Z" fill="#231F20"/>
<path d="M84.73 255.27H86.3V260.92H89.05V262.24H84.73V255.27Z" fill="#231F20"/>
<path d="M90.54 259.76L88.45 255.27H90.13L90.75 256.87C90.94 257.4 91.12 257.87 91.32 258.42C91.52 257.88 91.72 257.42 91.91 256.87L92.53 255.27H94.18L92.08 259.76V262.24H90.5L90.54 259.76Z" fill="#231F20"/>
<path d="M96.84 255.27H101.24V256.59H98.41V258.21H100.83V259.53H98.41V262.24H96.84V255.27Z" fill="#231F20"/>
<path d="M102.44 255.27H106.81V256.59H104V258H106.38V259.33H104V260.93H106.9V262.25H102.42L102.44 255.27Z" fill="#231F20"/>
<path d="M108.31 255.27H110.82C112.3 255.27 113.51 255.79 113.51 257.44C113.51 259.09 112.3 259.74 110.82 259.74H109.88V262.24H108.31V255.27ZM110.69 258.48C111.52 258.48 111.96 258.13 111.96 257.48C111.96 256.83 111.52 256.56 110.69 256.56H109.88V258.56L110.69 258.48ZM110.53 259.32L111.62 258.32L113.84 262.25H112.08L110.53 259.32Z" fill="#231F20"/>
<path d="M114.87 255.27H116.58L117.72 258.37C117.85 258.78 117.98 259.23 118.12 259.66C118.26 259.23 118.38 258.78 118.52 258.37L119.61 255.27H121.33V262.27H119.9V259.72C119.926 258.927 119.993 258.136 120.1 257.35V257.35L119.52 259L118.52 261.67H117.64L116.64 259L116.08 257.35C116.15 258.02 116.28 259.04 116.28 259.72V262.27H114.87V255.27Z" fill="#231F20"/>
<path d="M123 255.27H127.36V256.59H124.57V258H127V259.33H124.62V260.93H127.52V262.25H123V255.27Z" fill="#231F20"/>
<path d="M128.88 255.27H130.5L132.31 258.74L133 260.27H133.05C132.941 259.431 132.874 258.586 132.85 257.74V255.27H134.35V262.27H132.73L130.91 258.8L130.22 257.28C130.3 258.05 130.42 258.98 130.42 259.8V262.27H128.92L128.88 255.27Z" fill="#231F20"/>
<path d="M137.36 256.59H135.44V255.27H140.85V256.59H138.93V262.24H137.36V256.59Z" fill="#231F20"/>
<path d="M141.94 255.27H146.31V256.59H143.52V258H145.9V259.33H143.52V260.93H146.42V262.25H141.94V255.27Z" fill="#231F20"/>
<path d="M147.81 255.27H149.81C151.94 255.27 153.31 256.33 153.31 258.73C153.31 261.13 151.94 262.24 149.9 262.24H147.84L147.81 255.27ZM149.68 260.97C150.86 260.97 151.68 260.4 151.68 258.73C151.68 257.06 150.88 256.54 149.68 256.54H149.38V261L149.68 260.97Z" fill="#231F20"/>
<path d="M156.29 261.36L157.19 260.28C157.663 260.713 158.27 260.971 158.91 261.01C159.56 261.01 159.91 260.75 159.91 260.34C159.91 259.93 159.51 259.76 158.91 259.51L158.01 259.12C157.603 258.994 157.247 258.743 156.994 258.401C156.74 258.059 156.602 257.645 156.6 257.22C156.622 256.92 156.705 256.627 156.843 256.359C156.981 256.091 157.171 255.853 157.402 255.66C157.633 255.467 157.901 255.322 158.189 255.235C158.477 255.147 158.78 255.118 159.08 255.15C159.917 255.15 160.72 255.476 161.32 256.06L160.53 257.06C160.124 256.717 159.611 256.526 159.08 256.52C158.54 256.52 158.19 256.74 158.19 257.14C158.19 257.54 158.65 257.72 159.26 257.97L160.14 258.33C160.549 258.446 160.908 258.694 161.159 259.036C161.411 259.379 161.542 259.795 161.53 260.22C161.53 261.38 160.53 262.38 158.9 262.38C157.932 262.385 156.998 262.02 156.29 261.36Z" fill="#231F20"/>
<path d="M164 255.27H165.88L168.07 262.27H166.4L165.49 258.74C165.3 258.05 165.11 257.22 164.92 256.5C164.75 257.23 164.57 258.05 164.37 258.74L163.46 262.27H161.8L164 255.27ZM163.25 259.36H166.6V260.58H163.25V259.36Z" fill="#231F20"/>
<path d="M168.73 255.27H170.35L172.17 258.74L172.86 260.27C172.751 259.431 172.684 258.586 172.66 257.74V255.27H174.16V262.27H172.54L170.73 258.8L170.04 257.28H170C170.08 258.05 170.21 258.98 170.21 259.8V262.27H168.7L168.73 255.27Z" fill="#231F20"/>
<path d="M175.85 255.27H177.85C179.98 255.27 181.35 256.33 181.35 258.73C181.35 261.13 179.98 262.24 177.94 262.24H175.88L175.85 255.27ZM177.72 260.97C178.91 260.97 179.72 260.4 179.72 258.73C179.72 257.06 178.93 256.54 177.72 256.54H177.43V261L177.72 260.97Z" fill="#231F20"/>
<path d="M181.94 255.27H183.56L184.04 258.53C184.13 259.26 184.23 260 184.32 260.73H184.37C184.5 260 184.64 259.25 184.78 258.53L185.53 255.27H186.87L187.62 258.53C187.76 259.24 187.9 259.99 188.04 260.73C188.13 259.99 188.23 259.25 188.32 258.53L188.8 255.27H190.31L189.07 262.27H187.07L186.39 259.11C186.28 258.57 186.18 258.01 186.11 257.49C186.02 258.01 185.93 258.57 185.82 259.11L185.16 262.27H183.22L181.94 255.27Z" fill="#231F20"/>
<path d="M191.32 255.27H192.89V262.27H191.32V255.27Z" fill="#231F20"/>
<path d="M194.21 258.8C194.167 258.34 194.22 257.877 194.365 257.438C194.511 257 194.745 256.597 195.055 256.254C195.364 255.911 195.741 255.635 196.162 255.445C196.583 255.256 197.038 255.155 197.5 255.15C198.291 255.161 199.046 255.485 199.6 256.05L198.76 257.05C198.602 256.881 198.412 256.746 198.2 256.651C197.989 256.557 197.761 256.505 197.53 256.5C196.58 256.5 195.82 257.34 195.82 258.74C195.82 260.14 196.49 261 197.51 261C197.77 260.994 198.026 260.934 198.26 260.822C198.495 260.709 198.702 260.549 198.87 260.35L199.7 261.35C199.423 261.673 199.077 261.931 198.688 262.104C198.299 262.277 197.876 262.361 197.45 262.35C195.69 262.37 194.21 261.15 194.21 258.8Z" fill="#231F20"/>
<path d="M200.77 255.27H202.34V258H204.75V255.31H206.32V262.31H204.75V259.4H202.34V262.31H200.77V255.27Z" fill="#231F20"/>
<path d="M210.12 255.27H212.5C213.95 255.27 215.07 255.67 215.07 257C215.079 257.314 214.997 257.623 214.834 257.892C214.671 258.16 214.433 258.375 214.15 258.51V258.51C214.524 258.584 214.858 258.791 215.092 259.092C215.325 259.394 215.442 259.769 215.42 260.15C215.42 261.57 214.22 262.2 212.7 262.2H210.12V255.27ZM212.43 258.07C213.19 258.07 213.53 257.74 213.53 257.24C213.53 256.74 213.18 256.49 212.44 256.49H211.69V258.07H212.43ZM212.57 261.07C213.43 261.07 213.88 260.76 213.88 260.13C213.88 259.5 213.44 259.27 212.57 259.27H211.69V261L212.57 261.07Z" fill="#231F20"/>
<path d="M216.59 255.27H219.1C220.58 255.27 221.79 255.79 221.79 257.44C221.79 259.09 220.58 259.74 219.1 259.74H218.17V262.24H216.59V255.27ZM218.97 258.48C219.8 258.48 220.25 258.13 220.25 257.48C220.25 256.83 219.8 256.56 218.97 256.56H218.17V258.56L218.97 258.48ZM218.81 259.32L219.9 258.32L222.13 262.25H220.36L218.81 259.32Z" fill="#231F20"/>
<path d="M223.15 255.27H227.51V256.59H224.72V258H227.1V259.33H224.72V260.93H227.62V262.25H223.15V255.27Z" fill="#231F20"/>
<path d="M230.31 255.27H232.19L234.38 262.27H232.71L231.8 258.74C231.61 258.05 231.42 257.22 231.24 256.5H231.19C231.03 257.23 230.84 258.05 230.65 258.74L229.73 262.27H228.12L230.31 255.27ZM229.56 259.36H232.92V260.58H229.56V259.36Z" fill="#231F20"/>
<path d="M235.06 255.27H237.06C239.18 255.27 240.56 256.33 240.56 258.73C240.618 259.197 240.57 259.671 240.419 260.117C240.269 260.563 240.021 260.969 239.693 261.306C239.364 261.643 238.964 261.902 238.523 262.064C238.081 262.225 237.608 262.285 237.14 262.24H235.09L235.06 255.27ZM236.93 260.97C238.11 260.97 238.93 260.4 238.93 258.73C238.93 257.06 238.13 256.54 236.93 256.54H236.63V261L236.93 260.97Z" fill="#231F20"/>
<path d="M143.19 198.1C131.41 198.1 119.63 198.1 107.85 198.1C94.75 198.04 86.07 189.25 86.07 176.15C86.07 156.817 86.07 137.483 86.07 118.15C86.133 116.362 85.4859 114.622 84.27 113.31C73.02 100.31 75.01 84.25 89.02 74.23C96.73 68.72 105.53 65.82 114.68 64.15C135.85 60.28 157.01 60.33 178 65.44C186.31 67.44 194.17 70.62 200.75 76.34C212.14 86.21 213.33 101.02 203.51 112.49C201.84 114.313 200.953 116.719 201.04 119.19C201.14 138.463 201.14 157.733 201.04 177C201.04 187.45 194.35 196 184.51 197.6C179.33 198.45 173.94 198.11 168.64 198.16C160.14 198.23 151.64 198.16 143.14 198.16L143.19 198.1ZM143.61 183.85C155.32 183.85 167.02 183.68 178.72 183.93C184.42 184.05 187.02 180.93 186.98 175.74C186.85 156.39 187.11 137.03 186.81 117.69C186.72 112.09 187.91 107.84 192.15 103.87C198.05 98.33 197.24 91.43 190.88 86.4C186.78 83.15 182.02 81.26 177.07 79.77C168.746 77.3968 160.161 76.0534 151.51 75.77C137.51 75.09 123.62 75.82 110.06 79.77C104.42 81.41 98.98 83.56 94.7 87.82C90.26 92.24 89.92 97.6 93.78 102.54C94.913 104.031 96.1928 105.405 97.6 106.64C99.68 108.43 100.3 110.55 100.29 113.25C100.2 134.16 100.24 155.07 100.24 175.99C100.24 181.56 102.52 183.81 108.04 183.81L143.61 183.85Z" fill="black"/>
<path d="M112.83 123.67C112.787 122.295 113.021 120.925 113.517 119.643C114.014 118.36 114.763 117.19 115.721 116.202C116.678 115.214 117.824 114.429 119.091 113.892C120.358 113.356 121.719 113.08 123.095 113.08C124.471 113.08 125.832 113.356 127.099 113.892C128.366 114.429 129.512 115.214 130.469 116.202C131.427 117.19 132.176 118.36 132.673 119.643C133.169 120.925 133.403 122.295 133.36 123.67" stroke="black" stroke-width="12.8" stroke-miterlimit="10" stroke-linecap="round"/>
<path d="M153.87 144.48C153.87 147.201 152.789 149.811 150.865 151.735C148.941 153.659 146.331 154.74 143.61 154.74C140.889 154.74 138.279 153.659 136.355 151.735C134.431 149.811 133.35 147.201 133.35 144.48" stroke="black" stroke-width="12.8" stroke-miterlimit="10" stroke-linecap="round"/>
<path d="M152.92 123.67C152.92 122.323 153.185 120.988 153.701 119.744C154.217 118.499 154.972 117.368 155.925 116.415C156.878 115.462 158.009 114.707 159.254 114.191C160.498 113.675 161.833 113.41 163.18 113.41C164.527 113.41 165.862 113.675 167.106 114.191C168.351 114.707 169.482 115.462 170.435 116.415C171.388 117.368 172.143 118.499 172.659 119.744C173.175 120.988 173.44 122.323 173.44 123.67" stroke="black" stroke-width="12.8" stroke-miterlimit="10" stroke-linecap="round"/>
<path d="M48.89 223H52.27C52.3356 222.992 52.402 223.005 52.4595 223.038C52.5171 223.07 52.5628 223.12 52.59 223.18V225.82C52.5983 226.361 52.5682 226.903 52.5 227.44H52.59H62.45C62.76 227.44 62.92 227.56 62.92 227.81V229.81C62.92 234.103 62.84 236.247 62.68 236.24C62.6486 236.973 62.5583 237.702 62.41 238.42C62.2764 238.922 62.1828 239.433 62.13 239.95C62.0233 239.95 61.9133 240.283 61.8 240.95C61.7 240.95 61.59 241.22 61.48 241.78C61.39 241.78 61.28 241.98 61.16 242.38C61.06 242.38 60.96 242.58 60.83 242.89L60.42 243.4C60.35 243.4 60.26 243.49 60.14 243.68C59.9896 243.828 59.8176 243.953 59.63 244.05C59.48 244.05 59.36 244.14 59.26 244.33C59.1267 244.327 58.9944 244.354 58.8732 244.409C58.7519 244.465 58.6448 244.547 58.56 244.65C58.1542 244.656 57.7573 244.77 57.41 244.98C57.2871 244.995 57.1629 244.995 57.04 244.98H55.18C54.7047 245.022 54.2265 244.943 53.79 244.75C53.1656 244.76 52.5429 244.682 51.94 244.52C51.6131 244.418 51.2788 244.341 50.94 244.29C50.94 244.16 50.94 244.1 50.85 244.1C50.91 243.1 50.95 242.03 50.99 240.77C51.0046 240.698 51.0456 240.635 51.1049 240.592C51.1643 240.55 51.2375 240.531 51.31 240.54C51.7108 240.552 52.1053 240.643 52.47 240.81C53.1053 240.748 53.7454 240.862 54.32 241.14C54.78 241.14 55.17 241.14 55.48 241.14H56.26C56.3368 241.139 56.4119 241.117 56.4772 241.077C56.5424 241.036 56.5953 240.979 56.63 240.91C56.7459 240.897 56.857 240.856 56.9544 240.792C57.0517 240.728 57.1324 240.641 57.19 240.54C57.276 240.513 57.3505 240.458 57.4013 240.384C57.4521 240.309 57.4763 240.22 57.47 240.13C57.58 240.13 57.7 239.88 57.84 239.38C58.0436 238.994 58.1532 238.566 58.16 238.13C58.29 238.13 58.39 237.52 58.49 236.28C58.6625 235.506 58.7397 234.713 58.72 233.92V231.51C58.7221 231.279 58.7388 231.049 58.77 230.82L58.53 230.77H52.5L52.27 230.82C52.2922 231.544 52.1803 232.266 51.94 232.95C51.9122 233.428 51.804 233.898 51.62 234.34C51.6177 234.616 51.538 234.887 51.39 235.12C51.33 235.473 51.2045 235.813 51.02 236.12C50.9628 236.454 50.8331 236.771 50.64 237.05C50.6016 237.294 50.49 237.521 50.32 237.7C50.3169 237.801 50.29 237.9 50.2413 237.989C50.1926 238.077 50.1236 238.153 50.04 238.21C49.9817 238.493 49.8387 238.751 49.63 238.95C49.63 239.13 49.55 239.23 49.39 239.23C49.3755 239.351 49.3349 239.467 49.271 239.571C49.2071 239.674 49.1215 239.763 49.02 239.83C49.02 239.97 48.92 240.1 48.7 240.2C48.7 240.41 48.61 240.52 48.42 240.52C48.42 240.76 48.25 240.99 47.91 241.22C47.91 241.28 47.73 241.48 47.36 241.82C47.36 241.82 47.25 241.97 47.03 242.14C46.7212 242.518 46.3649 242.854 45.97 243.14C45.97 243.25 45.78 243.35 45.5 243.47C45.5 243.57 45.4 243.66 45.18 243.75C45.18 243.83 45.01 243.96 44.67 244.12C44.67 244.22 44.52 244.31 44.21 244.4C44.21 244.55 44.08 244.64 43.84 244.67C43.7806 244.775 43.693 244.862 43.587 244.92C43.481 244.979 43.3608 245.006 43.24 245C43.24 245.16 43.05 245.28 42.68 245.37C42.6506 245.443 42.5989 245.504 42.5324 245.545C42.466 245.587 42.3881 245.606 42.31 245.6C42.19 245.6 42.02 245.4 41.8 245C41.7 245 41.64 244.89 41.61 244.67C41.51 244.67 41.32 244.46 41.06 244.03C40.8106 243.764 40.5769 243.483 40.36 243.19C40.3438 243.131 40.3438 243.069 40.36 243.01C40.36 242.89 40.48 242.78 40.73 242.68C40.73 242.6 40.88 242.47 41.19 242.31C41.19 242.24 41.35 242.15 41.65 242.03C41.65 241.91 41.76 241.83 41.98 241.8C42.1374 241.592 42.3225 241.407 42.53 241.25C42.703 241.202 42.8635 241.117 43 241C43.13 241 43.24 240.89 43.33 240.68C43.47 240.68 43.58 240.57 43.65 240.35C43.8 240.35 43.91 240.24 43.98 240.03C44.1 240.03 44.21 239.92 44.3 239.7C44.43 239.7 44.54 239.58 44.62 239.33C44.9773 239.002 45.29 238.629 45.55 238.22L45.83 237.85C45.9402 237.655 46.0639 237.468 46.2 237.29C46.2507 237.079 46.3619 236.888 46.52 236.74C46.5391 236.549 46.6199 236.37 46.75 236.23C46.8409 235.922 46.9685 235.627 47.13 235.35C47.1576 235.018 47.2676 234.699 47.45 234.42C47.4786 234.019 47.5874 233.628 47.77 233.27C47.8347 232.547 47.9755 231.833 48.19 231.14C48.14 231.01 48.1 230.95 48.05 230.95H41.89C41.8192 230.918 41.7595 230.866 41.7185 230.8C41.6775 230.734 41.6572 230.658 41.66 230.58V227.94C41.66 227.63 41.83 227.48 42.17 227.48H48.38C48.44 227.48 48.47 227.48 48.47 227.38V227.29C48.47 227.2 48.47 227.15 48.42 227.15L48.47 226.92V223.92C48.4654 223.749 48.4487 223.579 48.42 223.41C48.42 223.09 48.58 223 48.89 223Z" fill="#231F20"/>
<path d="M65.06 223.38H87.06C87.25 223.38 87.7 223.8 88.41 224.63C88.5 224.63 88.62 224.76 88.78 225V225.19C88.7271 225.379 88.6312 225.554 88.5 225.7C88.4914 225.775 88.4663 225.847 88.4265 225.911C88.3867 225.975 88.3333 226.029 88.27 226.07C88.1754 226.302 88.0511 226.52 87.9 226.72C87.806 226.937 87.6814 227.139 87.53 227.32C87.53 227.42 87.45 227.51 87.3 227.6C87.1459 227.97 86.9256 228.309 86.65 228.6C86.4765 228.951 86.2391 229.266 85.95 229.53C85.95 229.66 85.84 229.79 85.63 229.9C85.6306 229.978 85.6024 230.054 85.5508 230.113C85.4992 230.172 85.4278 230.21 85.35 230.22C85.35 230.35 85.09 230.69 84.56 231.22C84.56 231.28 84.5 231.34 84.38 231.4C84.32 231.62 84.21 231.73 84.05 231.73C84.0541 231.775 84.049 231.821 84.035 231.865C84.021 231.908 83.9984 231.948 83.9685 231.983C83.9387 232.017 83.9022 232.046 83.8612 232.066C83.8202 232.086 83.7756 232.098 83.73 232.1C83.73 232.23 83.62 232.37 83.41 232.52C83.1854 232.843 82.9198 233.135 82.62 233.39C82.0509 233.998 81.4465 234.573 80.81 235.11C80.81 235.18 80.71 235.26 80.49 235.34C80.49 235.47 80.38 235.56 80.16 235.62C80.16 235.733 79.96 235.933 79.56 236.22C79.2417 236.502 78.9078 236.766 78.56 237.01V237.01C78.7833 237.189 78.9848 237.394 79.16 237.62C79.16 237.73 79.25 237.82 79.44 237.89C79.44 238 79.55 238.12 79.76 238.26C79.76 238.36 79.86 238.47 80.04 238.59C80.3302 238.96 80.6407 239.314 80.97 239.65L81.25 240.02C81.32 240.02 81.41 240.15 81.52 240.39C81.8625 240.692 82.1741 241.027 82.45 241.39C82.6614 241.666 82.892 241.927 83.14 242.17C83.1762 242.227 83.1937 242.293 83.19 242.36V242.41C83.19 242.51 83.01 242.61 82.73 242.73C82.73 242.85 82.56 242.95 82.22 243.01C82.22 243.15 82.06 243.25 81.76 243.28C81.76 243.43 81.54 243.56 81.11 243.66C81.11 243.82 80.92 243.93 80.55 243.98C80.55 244.1 80.38 244.21 80.04 244.3C80.04 244.46 79.95 244.54 79.76 244.54C79.57 244.54 79.57 244.46 79.49 244.3C79.35 244.3 79.24 244.17 79.16 243.89C78.73 243.45 78.51 243.14 78.51 242.96C78.37 242.96 78.26 242.84 78.19 242.59C77.8035 242.253 77.4669 241.862 77.19 241.43C77.0671 241.307 76.9597 241.169 76.87 241.02C76.76 241.02 76.67 240.91 76.59 240.69C76.5 240.69 76.39 240.58 76.27 240.37C76.2 240.37 75.99 240.13 75.62 239.67C75.31 239.45 75.15 239.31 75.15 239.26C74.94 239.07 74.83 238.96 74.83 238.93C74.83 238.9 74.71 238.79 74.46 238.61C74.46 238.53 74.37 238.44 74.18 238.33C74.18 238.27 74.06 238.14 73.81 237.96C73.81 237.88 73.7 237.79 73.49 237.68C73.49 237.53 73.38 237.44 73.16 237.4C73.16 237.24 73.04 237.13 72.79 237.08C72.79 236.92 72.67 236.81 72.42 236.76C72.42 236.64 72.28 236.52 72 236.39C72 236.28 71.88 236.18 71.63 236.11C71.63 235.98 71.5 235.86 71.22 235.74C71.22 235.64 71.09 235.53 70.85 235.41C70.85 235.31 70.72 235.22 70.48 235.14C70.48 235.01 70.32 234.9 70.01 234.81C70.01 234.66 69.87 234.56 69.6 234.49C69.6 234.36 69.46 234.26 69.18 234.16C69.18 234.07 69.01 233.95 68.67 233.79C68.67 233.69 68.55 233.6 68.3 233.51C68.3 233.42 68.11 233.3 67.74 233.14C67.6298 233.004 67.5058 232.88 67.37 232.77V232.54C67.6774 232.346 67.9595 232.114 68.21 231.85C68.3944 231.727 68.5511 231.567 68.67 231.38C68.76 231.38 68.89 231.28 69.04 231.06C69.13 231.06 69.22 230.97 69.32 230.78C69.46 230.78 69.57 230.67 69.64 230.46C69.8073 230.39 69.9525 230.276 70.06 230.13H70.15C70.2767 230.13 70.4167 230.24 70.57 230.46C70.657 230.471 70.7404 230.501 70.8133 230.55C70.8863 230.599 70.9468 230.664 70.99 230.74C71.15 230.74 71.33 230.86 71.54 231.11C71.6123 231.108 71.6833 231.13 71.7427 231.171C71.802 231.212 71.8466 231.272 71.87 231.34C72.1105 231.429 72.3289 231.569 72.51 231.75C72.63 231.75 72.74 231.86 72.84 232.08C73.05 232.08 73.16 232.16 73.16 232.31C73.3467 232.31 73.5467 232.45 73.76 232.73C73.838 232.729 73.914 232.755 73.9745 232.805C74.0349 232.854 74.0758 232.923 74.09 233C74.3 233 74.41 233.1 74.41 233.28C74.58 233.28 74.75 233.41 74.92 233.65C75.03 233.65 75.15 233.75 75.29 233.93C75.4654 234.006 75.6124 234.136 75.71 234.3H75.85L76.17 234.02C76.27 234.02 76.41 233.92 76.59 233.7L77.1 233.28C77.2326 233.112 77.4091 232.984 77.61 232.91C77.61 232.79 77.64 232.73 77.7 232.73C77.82 232.73 77.92 232.62 78.02 232.4C78.14 232.4 78.26 232.3 78.39 232.08C78.49 232.08 78.61 231.97 78.77 231.75C78.83 231.75 78.93 231.65 79.09 231.43C79.15 231.43 79.26 231.32 79.41 231.11C79.47 231.11 79.58 231 79.74 230.78C79.8 230.78 79.91 230.67 80.06 230.46C80.17 230.46 80.25 230.35 80.29 230.13C80.39 230.13 80.51 230.03 80.66 229.81C80.77 229.81 80.85 229.7 80.9 229.49C81.2198 229.181 81.5141 228.847 81.78 228.49C82.05 228.2 82.19 228.01 82.19 227.94C82.19 227.87 82.27 227.82 82.42 227.71C82.57 227.6 82.62 227.35 83.03 226.92V226.83H65.03C64.81 226.83 64.7 226.69 64.7 226.41V223.8C64.72 223.52 64.84 223.38 65.06 223.38Z" fill="#231F20"/>
<path d="M100.11 223.29C100.556 223.307 100.996 223.402 101.41 223.57C102.092 223.528 102.775 223.638 103.41 223.89C103.72 223.94 103.87 224 103.87 224.08C103.877 224.477 103.765 224.867 103.55 225.2C103.538 225.575 103.427 225.941 103.23 226.26C103.223 226.619 103.108 226.967 102.9 227.26C102.902 227.619 102.789 227.969 102.58 228.26C102.575 228.619 102.459 228.968 102.25 229.26C102.052 229.899 101.835 230.533 101.6 231.16C101.532 231.534 101.408 231.894 101.23 232.23C101.206 232.447 101.127 232.653 101 232.83C100.964 233.145 100.855 233.446 100.68 233.71C100.597 234.057 100.473 234.393 100.31 234.71C100.297 234.939 100.197 235.153 100.03 235.31C99.9867 235.668 99.86 236.01 99.66 236.31C99.631 236.572 99.5188 236.817 99.34 237.01C99.3069 237.275 99.2109 237.529 99.06 237.75C98.9883 238.108 98.8455 238.448 98.64 238.75C98.64 238.97 98.58 239.11 98.46 239.17C98.36 239.58 98.26 239.82 98.13 239.86C98.0949 240.236 97.9326 240.589 97.67 240.86V241C97.67 241.07 97.67 241.1 97.76 241.1C98.4888 241.097 99.2168 241.05 99.94 240.96H100.26C100.402 240.838 100.583 240.771 100.77 240.77H101.33C102.437 240.845 103.548 240.737 104.62 240.45H104.67H104.9H105.04C105.858 240.547 106.688 240.434 107.45 240.12C107.97 240.12 108.23 240.09 108.23 240.03C108.023 239.792 107.852 239.526 107.72 239.24C107.644 239.068 107.535 238.911 107.4 238.78C107.392 238.692 107.362 238.608 107.313 238.535C107.264 238.461 107.198 238.401 107.12 238.36C107.05 238.105 106.924 237.869 106.75 237.67C106.75 237.56 106.67 237.45 106.52 237.34C106.422 237.125 106.298 236.924 106.15 236.74C106.079 236.55 105.97 236.377 105.83 236.23C105.78 236.042 105.662 235.878 105.5 235.77C105.43 235.542 105.302 235.335 105.13 235.17C105.119 235.083 105.089 235 105.04 234.927C104.991 234.854 104.926 234.793 104.85 234.75C104.85 234.62 104.74 234.45 104.53 234.24C104.437 233.984 104.294 233.75 104.11 233.55C104.11 233.43 104.03 233.34 103.88 233.27C103.826 233.172 103.795 233.062 103.79 232.95C103.79 232.61 104.08 232.39 104.67 232.3C104.67 232.173 104.87 232.063 105.27 231.97C105.27 231.97 105.35 231.86 105.5 231.74H106.06C106.234 231.515 106.435 231.314 106.66 231.14H107C107.24 231.29 107.37 231.42 107.37 231.51C107.58 231.76 107.69 231.93 107.69 232.02C107.69 232.11 107.95 232.23 108.2 232.62C108.27 232.62 108.35 232.75 108.43 232.99C108.5 232.99 108.66 233.19 108.9 233.59L109.13 233.97C109.21 233.97 109.29 234.09 109.36 234.34C109.48 234.39 109.61 234.57 109.73 234.89C109.83 234.89 109.94 235.05 110.05 235.35C110.214 235.499 110.33 235.694 110.38 235.91C110.49 235.91 110.59 236.08 110.7 236.42C110.79 236.42 110.91 236.6 111.07 236.97C111.212 237.108 111.309 237.286 111.35 237.48C111.46 237.48 111.57 237.67 111.67 238.04C111.79 238.04 111.9 238.22 112 238.6C112.09 238.649 112.165 238.724 112.215 238.814C112.264 238.904 112.287 239.007 112.28 239.11C112.38 239.11 112.5 239.32 112.65 239.71C112.72 239.71 112.85 239.94 113.02 240.36C113.11 240.36 113.2 240.54 113.29 240.91C113.38 240.91 113.49 241.12 113.62 241.47C113.7 241.47 113.79 241.66 113.9 242.02C114.077 242.221 114.204 242.461 114.27 242.72C114.35 242.72 114.45 242.92 114.55 243.32C114.66 243.32 114.77 243.55 114.87 243.97C115.02 243.97 115.1 244.07 115.1 244.29C115.1 244.51 114.9 244.54 114.5 244.66C114.5 244.82 114.22 244.89 113.67 244.89C113.634 244.972 113.575 245.042 113.501 245.091C113.426 245.141 113.339 245.168 113.25 245.17C113.101 245.148 112.948 245.167 112.809 245.225C112.67 245.283 112.549 245.378 112.46 245.5C111.94 245.5 111.64 245.6 111.53 245.82H111.16C111.1 245.82 111.01 245.63 110.89 245.26C110.76 245.26 110.67 245.05 110.61 244.62C110.49 244.62 110.38 244.38 110.28 243.92C110.21 243.92 110.12 243.8 110.01 243.55H109.91C109.464 243.576 109.027 243.685 108.62 243.87H108.15C107.304 243.835 106.458 243.947 105.65 244.2H105.14C104.208 244.173 103.277 244.267 102.37 244.48C101.254 244.484 100.14 244.544 99.03 244.66H98.75C98.6242 244.745 98.4858 244.809 98.34 244.85H98.29C97.98 244.85 97.75 244.85 97.6 244.85H97.13C95.9344 244.8 94.7376 244.908 93.57 245.17C93.5075 245.185 93.4425 245.185 93.38 245.17C92.95 245.17 92.58 245.17 92.27 245.17H91.16C91.05 245.17 90.96 244.86 90.88 244.25C90.6861 243.618 90.5917 242.961 90.6 242.3C90.53 242.3 90.47 242.11 90.42 241.74V241.61C90.42 241.45 90.8 241.37 91.58 241.37H92.22C92.87 241.37 93.22 241.3 93.22 241.14C93.22 240.98 93.34 240.98 93.59 240.91C93.5889 240.791 93.6176 240.674 93.6735 240.569C93.7294 240.464 93.8107 240.375 93.91 240.31C93.9052 240.18 93.9277 240.051 93.9759 239.93C94.0241 239.81 94.097 239.701 94.19 239.61C94.2509 239.257 94.3763 238.918 94.56 238.61C94.5737 238.382 94.6738 238.167 94.84 238.01C94.8686 237.743 94.965 237.489 95.12 237.27C95.1621 236.993 95.2536 236.725 95.39 236.48C95.49 236.48 95.56 236.23 95.62 235.74C95.74 235.74 95.85 235.46 95.95 234.91C96.05 234.91 96.17 234.58 96.32 233.91C96.43 233.91 96.52 233.64 96.6 233.12C96.71 233.12 96.82 232.82 96.92 232.24C97.02 232.24 97.13 231.93 97.25 231.31C97.35 231.31 97.46 231 97.57 230.39C97.69 230.39 97.79 230.06 97.89 229.39C98.03 229.39 98.14 229.07 98.22 228.39C98.36 228.39 98.46 228.07 98.54 227.39C98.66 227.39 98.77 227.06 98.87 226.39C98.98 226.39 99.09 226.05 99.19 225.39C99.31 225.39 99.41 225.03 99.51 224.32C99.64 224.32 99.73 224.01 99.79 223.39C99.8878 223.333 99.9971 223.299 100.11 223.29Z" fill="#231F20"/>
<path d="M118 224.26H139.82C140.029 224.341 140.217 224.467 140.37 224.63C140.51 224.803 140.684 224.946 140.88 225.05C140.936 225.223 141.032 225.381 141.16 225.51C140.97 225.811 140.86 226.155 140.84 226.51C140.73 226.51 140.6 226.81 140.46 227.39C140.36 227.39 140.27 227.61 140.19 228.04C140.06 228.04 139.95 228.26 139.86 228.69C139.75 228.69 139.62 228.89 139.49 229.29C139.49 229.29 139.33 229.49 139.12 229.89C139.04 229.89 138.97 230.03 138.89 230.31C138.76 230.31 138.67 230.43 138.61 230.68C138.55 230.68 138.4 230.86 138.15 231.24C137.9 231.62 137.73 231.7 137.69 231.7C137.689 231.778 137.66 231.853 137.608 231.911C137.557 231.97 137.487 232.008 137.41 232.02C137.41 232.16 137.3 232.29 137.08 232.39C137.08 232.52 136.81 232.81 136.25 233.27C136.021 233.539 135.755 233.775 135.46 233.97C135.46 234.06 135.36 234.15 135.14 234.25C135.14 234.31 135 234.43 134.72 234.62C134.72 234.68 134.6 234.79 134.35 234.94L133.89 235.31C133.89 235.38 133.77 235.46 133.52 235.54C133.52 235.67 133.39 235.77 133.15 235.82C133.15 235.97 132.96 236.07 132.59 236.14C132.59 236.33 132.45 236.42 132.18 236.42C132.1 236.526 132.006 236.62 131.9 236.7H131.76C131.5 236.7 131.33 236.51 131.25 236.14C131.09 236.14 130.99 236.02 130.93 235.77C130.82 235.77 130.66 235.59 130.46 235.22L130.14 234.8L129.91 234.52H129.86C129.77 234.52 129.66 235.09 129.54 236.24C129.44 236.24 129.34 236.62 129.21 237.39C129.11 237.39 129 237.69 128.89 238.27C128.81 238.27 128.69 238.52 128.52 239.02C128.45 239.02 128.35 239.18 128.24 239.52C128.15 239.52 128.05 239.71 127.91 240.08C127.676 240.33 127.474 240.609 127.31 240.91C127.24 240.91 127.14 241.04 126.99 241.28C126.535 241.798 126.04 242.279 125.51 242.72C125.51 242.79 125.38 242.87 125.14 242.95C125.14 243.11 125.03 243.18 124.81 243.18C124.81 243.32 124.61 243.46 124.21 243.6L124.16 243.78H124C123.801 243.991 123.543 244.137 123.26 244.2C123.26 244.33 123.05 244.44 122.61 244.53C122.61 244.677 122.41 244.767 122.01 244.8C121.89 244.919 121.745 245.01 121.586 245.067C121.428 245.124 121.258 245.145 121.09 245.13C121.09 245.3 120.75 245.42 120.09 245.5C120.09 245.65 119.89 245.73 119.48 245.73C119.3 245.73 119.16 245.48 119.07 244.99C118.97 244.99 118.84 244.74 118.7 244.25C118.63 244.25 118.52 244.02 118.37 243.55C118.25 243.55 118.19 243.45 118.19 243.23V243C118.176 242.877 118.176 242.753 118.19 242.63C118.381 242.581 118.556 242.485 118.7 242.35C119.246 242.148 119.786 241.932 120.32 241.7C120.447 241.706 120.573 241.68 120.686 241.624C120.8 241.568 120.898 241.484 120.97 241.38C121.088 241.379 121.205 241.35 121.31 241.294C121.414 241.238 121.503 241.158 121.57 241.06C121.681 241.053 121.789 241.019 121.885 240.962C121.981 240.904 122.061 240.825 122.12 240.73C122.26 240.73 122.42 240.62 122.59 240.41C123.133 239.98 123.608 239.471 124 238.9L124.23 238.57C124.23 238.49 124.32 238.34 124.51 238.11C124.588 237.864 124.695 237.629 124.83 237.41C124.872 237.126 124.986 236.858 125.16 236.63C125.227 236.01 125.317 235.7 125.43 235.7C125.53 234.92 125.65 234.16 125.8 233.43C125.95 232.7 125.85 232.26 125.85 231.86V229.08C125.85 228.86 125.99 228.75 126.27 228.75H129.56C129.83 228.75 129.97 228.86 129.97 229.08V233C129.962 233.295 129.932 233.589 129.88 233.88H129.97C130.157 233.699 130.378 233.556 130.62 233.46C130.62 233.33 130.74 233.26 130.99 233.23C130.99 233.11 131.1 232.99 131.32 232.86C131.32 232.74 131.46 232.62 131.69 232.49C131.69 232.36 131.84 232.24 132.15 232.11C132.15 232.01 132.27 231.92 132.52 231.84C132.52 231.7 132.64 231.61 132.89 231.56C132.89 231.41 133.01 231.3 133.26 231.24C133.26 231.07 133.37 230.95 133.59 230.86C133.59 230.72 133.68 230.61 133.86 230.54C134.064 230.164 134.331 229.826 134.65 229.54C134.65 229.48 134.71 229.4 134.84 229.31C134.887 229.123 135.001 228.959 135.16 228.85C135.329 228.621 135.47 228.372 135.58 228.11C135.58 228.04 135.65 227.99 135.81 227.97V227.78L135.76 227.69L135.67 227.74H118.13C117.85 227.74 117.71 227.63 117.71 227.41V224.68C117.71 224.4 117.82 224.26 118 224.26Z" fill="#231F20"/>
<path d="M150.44 223H153.82C153.99 223 154.1 223.06 154.14 223.18V225.82C154.148 226.361 154.118 226.903 154.05 227.44H154.14H164C164.31 227.44 164.46 227.56 164.46 227.81V229.81C164.46 234.103 164.383 236.247 164.23 236.24C164.2 236.973 164.106 237.703 163.95 238.42C163.821 238.923 163.728 239.434 163.67 239.95C163.57 239.95 163.46 240.29 163.35 240.95C163.24 240.95 163.13 241.22 163.02 241.78C162.93 241.78 162.82 241.98 162.7 242.38C162.61 242.38 162.5 242.58 162.38 242.89L161.96 243.4C161.9 243.4 161.8 243.49 161.68 243.68C161.534 243.833 161.361 243.958 161.17 244.05C161.088 244.058 161.01 244.088 160.945 244.137C160.88 244.187 160.829 244.253 160.8 244.33C160.668 244.326 160.537 244.353 160.417 244.409C160.297 244.464 160.192 244.547 160.11 244.65C159.701 244.656 159.301 244.77 158.95 244.98C158.827 244.995 158.703 244.995 158.58 244.98H156.73C156.255 245.024 155.776 244.945 155.34 244.75C154.712 244.76 154.086 244.683 153.48 244.52C153.153 244.416 152.819 244.339 152.48 244.29C152.48 244.16 152.48 244.1 152.39 244.1C152.45 243.1 152.5 242.03 152.53 240.77C152.545 240.698 152.586 240.635 152.645 240.592C152.704 240.55 152.778 240.531 152.85 240.54C153.251 240.552 153.645 240.643 154.01 240.81C154.645 240.748 155.285 240.862 155.86 241.14C156.33 241.14 156.71 241.14 157.02 241.14H157.81C157.887 241.138 157.961 241.116 158.026 241.075C158.091 241.035 158.144 240.978 158.18 240.91C158.295 240.897 158.404 240.856 158.5 240.792C158.596 240.728 158.675 240.641 158.73 240.54C158.816 240.513 158.89 240.458 158.941 240.384C158.992 240.309 159.016 240.22 159.01 240.13C159.12 240.13 159.24 239.88 159.38 239.38C159.589 238.996 159.702 238.567 159.71 238.13C159.83 238.13 159.94 237.52 160.03 236.28C160.202 235.506 160.28 234.713 160.26 233.92V231.51C160.26 231.36 160.26 231.13 160.31 230.82L160.08 230.77H154.01L153.78 230.82C153.802 231.544 153.69 232.266 153.45 232.95C153.427 233.429 153.319 233.9 153.13 234.34C153.128 234.616 153.048 234.887 152.9 235.12C152.844 235.475 152.719 235.815 152.53 236.12C152.477 236.453 152.35 236.771 152.16 237.05C152.117 237.295 152.002 237.521 151.83 237.7C151.827 237.8 151.8 237.898 151.754 237.986C151.707 238.074 151.641 238.151 151.56 238.21C151.492 238.491 151.347 238.748 151.14 238.95C151.14 239.13 151.06 239.23 150.91 239.23C150.894 239.35 150.852 239.466 150.788 239.569C150.725 239.672 150.64 239.761 150.54 239.83C150.54 239.97 150.43 240.1 150.21 240.2C150.21 240.41 150.12 240.52 149.94 240.52C149.94 240.76 149.77 240.99 149.43 241.22C149.43 241.28 149.24 241.48 148.87 241.82C148.87 241.82 148.76 241.97 148.55 242.14C148.237 242.517 147.877 242.853 147.48 243.14C147.48 243.25 147.3 243.35 147.02 243.47C147.02 243.57 146.91 243.66 146.69 243.75C146.69 243.83 146.52 243.96 146.18 244.12C146.18 244.22 146.03 244.31 145.72 244.4C145.72 244.55 145.6 244.64 145.35 244.67C145.291 244.775 145.203 244.862 145.097 244.92C144.991 244.979 144.871 245.006 144.75 245C144.75 245.16 144.56 245.28 144.19 245.37C144.162 245.443 144.111 245.506 144.044 245.547C143.977 245.589 143.898 245.607 143.82 245.6C143.707 245.6 143.537 245.4 143.31 245C143.21 245 143.15 244.89 143.13 244.67C143.02 244.67 142.83 244.46 142.57 244.03C142.323 243.765 142.092 243.484 141.88 243.19C141.847 243.136 141.83 243.073 141.83 243.01C141.83 242.89 141.95 242.78 142.2 242.68C142.2 242.6 142.36 242.47 142.67 242.31C142.67 242.24 142.83 242.15 143.13 242.03C143.13 241.91 143.24 241.83 143.45 241.8C143.613 241.594 143.801 241.409 144.01 241.25C144.215 241.159 144.391 241.014 144.52 240.83C144.64 240.83 144.75 240.72 144.84 240.51C144.987 240.51 145.097 240.4 145.17 240.18C145.31 240.18 145.42 240.07 145.49 239.86C145.61 239.86 145.72 239.75 145.81 239.53C145.94 239.53 146.05 239.41 146.14 239.16C146.496 238.834 146.806 238.461 147.06 238.05L147.34 237.68C147.454 237.487 147.577 237.3 147.71 237.12C147.761 236.907 147.876 236.715 148.04 236.57C148.055 236.378 148.136 236.198 148.27 236.06C148.351 235.751 148.476 235.454 148.64 235.18C148.674 234.85 148.784 234.531 148.96 234.25C148.987 233.848 149.099 233.455 149.29 233.1C149.355 232.378 149.492 231.664 149.7 230.97C149.7 230.84 149.61 230.78 149.57 230.78H143.41C143.337 230.75 143.276 230.698 143.233 230.632C143.19 230.566 143.168 230.489 143.17 230.41V227.77C143.17 227.46 143.34 227.31 143.68 227.31H149.89C149.95 227.31 149.98 227.31 149.98 227.21V227.12C149.98 227.03 149.98 226.98 149.98 226.98V226.75V223.75C149.993 223.58 149.993 223.41 149.98 223.24C150 223.09 150.13 223 150.44 223Z" fill="#231F20"/>
<path d="M166.61 223.38H188.61C188.79 223.38 189.24 223.8 189.95 224.63C190.04 224.63 190.17 224.76 190.32 225V225.19C190.267 225.379 190.171 225.554 190.04 225.7C190.034 225.775 190.009 225.848 189.969 225.913C189.929 225.977 189.875 226.031 189.81 226.07C189.72 226.304 189.595 226.523 189.44 226.72C189.351 226.939 189.226 227.142 189.07 227.32C189.07 227.42 188.99 227.51 188.84 227.6C188.69 227.972 188.47 228.312 188.19 228.6C188.026 228.954 187.791 229.27 187.5 229.53C187.5 229.66 187.39 229.79 187.17 229.9C187.171 229.977 187.144 230.052 187.095 230.11C187.045 230.169 186.976 230.208 186.9 230.22C186.9 230.35 186.63 230.69 186.11 231.22C186.11 231.28 186.05 231.34 185.92 231.4C185.86 231.62 185.75 231.73 185.6 231.73C185.603 231.776 185.596 231.822 185.581 231.866C185.566 231.909 185.542 231.949 185.512 231.983C185.481 232.018 185.444 232.046 185.403 232.066C185.361 232.086 185.316 232.097 185.27 232.1C185.27 232.23 185.17 232.37 184.95 232.52C184.729 232.846 184.463 233.139 184.16 233.39C183.594 233.998 182.993 234.572 182.36 235.11C182.36 235.18 182.25 235.26 182.03 235.34C182.03 235.47 181.92 235.56 181.71 235.62C181.71 235.733 181.51 235.933 181.11 236.22C181.05 236.29 180.73 236.55 180.11 237.01C180.338 237.187 180.543 237.392 180.72 237.62C180.72 237.733 180.81 237.823 180.99 237.89C180.99 238 181.1 238.12 181.32 238.26C181.32 238.36 181.41 238.47 181.6 238.59C181.883 238.963 182.19 239.317 182.52 239.65L182.8 240.02C182.87 240.02 182.96 240.15 183.08 240.39C183.414 240.697 183.722 241.031 184 241.39C184.216 241.665 184.45 241.925 184.7 242.17C184.715 242.232 184.715 242.298 184.7 242.36V242.41C184.7 242.51 184.51 242.61 184.23 242.73C184.23 242.85 184.06 242.95 183.72 243.01C183.72 243.15 183.57 243.25 183.26 243.28C183.26 243.43 183.04 243.56 182.61 243.66C182.61 243.82 182.43 243.93 182.06 243.98C182.06 244.1 181.89 244.21 181.55 244.3C181.55 244.46 181.45 244.54 181.27 244.54C181.09 244.54 181.08 244.46 180.99 244.3C180.85 244.3 180.74 244.17 180.67 243.89C180.23 243.45 180.02 243.14 180.02 242.96C179.87 242.96 179.76 242.84 179.69 242.59C179.305 242.251 178.968 241.861 178.69 241.43C178.56 241.31 178.449 241.172 178.36 241.02C178.25 241.02 178.16 240.91 178.08 240.69C177.99 240.69 177.88 240.58 177.76 240.37C177.509 240.171 177.29 239.935 177.11 239.67C176.8 239.45 176.65 239.31 176.65 239.26C176.43 239.073 176.32 238.963 176.32 238.93C176.32 238.93 176.2 238.79 175.95 238.61C175.95 238.53 175.86 238.44 175.68 238.33C175.68 238.27 175.55 238.14 175.3 237.96C175.3 237.88 175.2 237.79 174.98 237.68C174.98 237.53 174.87 237.44 174.66 237.4C174.66 237.24 174.53 237.13 174.29 237.08C174.29 236.92 174.16 236.81 173.92 236.76C173.92 236.64 173.78 236.52 173.5 236.39C173.5 236.28 173.37 236.18 173.13 236.11C173.13 235.98 172.99 235.86 172.71 235.74C172.71 235.64 172.59 235.53 172.34 235.41C172.34 235.31 172.22 235.22 171.97 235.14C171.97 235.01 171.82 234.9 171.51 234.81C171.51 234.66 171.37 234.56 171.09 234.49C171.09 234.36 170.95 234.26 170.67 234.16C170.67 234.07 170.5 233.95 170.16 233.79C170.16 233.69 170.04 233.6 169.79 233.51C169.79 233.42 169.61 233.3 169.24 233.14C169.126 233.007 169.003 232.884 168.87 232.77V232.54C169.174 232.345 169.453 232.113 169.7 231.85C169.887 231.73 170.044 231.569 170.16 231.38C170.26 231.38 170.38 231.28 170.53 231.06C170.62 231.06 170.71 230.97 170.81 230.78C170.95 230.78 171.06 230.67 171.14 230.46C171.306 230.392 171.448 230.278 171.55 230.13H171.65C171.78 230.13 171.92 230.24 172.06 230.46C172.147 230.471 172.23 230.501 172.303 230.55C172.376 230.599 172.437 230.664 172.48 230.74C172.594 230.759 172.703 230.802 172.799 230.866C172.896 230.93 172.978 231.013 173.04 231.11C173.111 231.109 173.18 231.131 173.238 231.172C173.296 231.213 173.338 231.272 173.36 231.34C173.604 231.428 173.825 231.568 174.01 231.75C174.12 231.75 174.23 231.86 174.33 232.08C174.55 232.08 174.66 232.16 174.66 232.31C174.84 232.31 175.04 232.45 175.26 232.73C175.337 232.729 175.412 232.756 175.47 232.805C175.529 232.855 175.568 232.924 175.58 233C175.8 233 175.91 233.1 175.91 233.28C176.08 233.28 176.25 233.41 176.42 233.65C176.52 233.65 176.65 233.75 176.79 233.93C176.964 234.004 177.108 234.134 177.2 234.3H177.34L177.67 234.02C177.77 234.02 177.91 233.92 178.08 233.7L178.59 233.28C178.727 233.116 178.902 232.989 179.1 232.91C179.1 232.79 179.13 232.73 179.19 232.73C179.25 232.73 179.36 232.62 179.52 232.4C179.63 232.4 179.76 232.3 179.89 232.08C179.98 232.08 180.11 231.97 180.26 231.75C180.32 231.75 180.43 231.65 180.58 231.43C180.65 231.43 180.75 231.32 180.91 231.11C180.91 231.11 181.07 231 181.23 230.78C181.29 230.78 181.4 230.67 181.56 230.46C181.66 230.46 181.74 230.35 181.79 230.13C181.88 230.13 182 230.03 182.16 229.81C182.27 229.81 182.34 229.7 182.39 229.49C182.717 229.187 183.011 228.852 183.27 228.49C183.55 228.2 183.69 228.01 183.69 227.94C183.69 227.87 183.76 227.82 183.92 227.71C183.92 227.61 184.12 227.35 184.52 226.92V226.83H166.52C166.31 226.83 166.2 226.69 166.2 226.41V223.8C166.29 223.52 166.4 223.38 166.61 223.38Z" fill="#231F20"/>
<path d="M201.67 223.29C202.113 223.308 202.549 223.403 202.96 223.57C203.642 223.532 204.324 223.641 204.96 223.89C205.26 223.94 205.42 224 205.42 224.08C205.424 224.478 205.309 224.868 205.09 225.2C205.085 225.576 204.974 225.944 204.77 226.26C204.766 226.618 204.655 226.966 204.45 227.26C204.453 227.621 204.337 227.972 204.12 228.26C204.123 228.619 204.011 228.969 203.8 229.26C203.781 229.617 203.667 229.962 203.47 230.26C203.449 230.59 203.338 230.908 203.15 231.18C203.082 231.554 202.957 231.914 202.78 232.25C202.752 232.465 202.673 232.671 202.55 232.85C202.516 233.166 202.402 233.469 202.22 233.73C202.137 234.077 202.013 234.413 201.85 234.73C201.846 234.844 201.819 234.955 201.771 235.058C201.723 235.161 201.654 235.254 201.57 235.33C201.527 235.688 201.4 236.03 201.2 236.33C201.176 236.593 201.063 236.84 200.88 237.03C200.852 237.297 200.755 237.551 200.6 237.77C200.529 238.126 200.389 238.466 200.19 238.77C200.201 238.851 200.19 238.933 200.156 239.008C200.122 239.082 200.068 239.145 200 239.19C199.91 239.6 199.8 239.84 199.68 239.88C199.641 240.257 199.475 240.609 199.21 240.88V241.02C199.21 241.09 199.21 241.12 199.31 241.12C200.035 241.116 200.76 241.07 201.48 240.98H201.81C201.952 240.858 202.133 240.791 202.32 240.79H202.87C203.977 240.867 205.089 240.758 206.16 240.47V240.47H206.39H206.53C207.348 240.569 208.178 240.455 208.94 240.14C209.47 240.14 209.73 240.14 209.73 240.05C209.523 239.812 209.352 239.546 209.22 239.26C209.138 239.088 209.026 238.933 208.89 238.8C208.882 238.713 208.853 238.63 208.806 238.557C208.759 238.484 208.695 238.423 208.62 238.38C208.546 238.127 208.42 237.892 208.25 237.69C208.25 237.577 208.17 237.467 208.01 237.36C207.921 237.141 207.796 236.938 207.64 236.76C207.573 236.568 207.464 236.394 207.32 236.25C207.278 236.061 207.163 235.895 207 235.79C206.925 235.564 206.799 235.358 206.63 235.19C206.618 235.103 206.587 235.021 206.538 234.948C206.49 234.875 206.425 234.814 206.35 234.77C206.35 234.643 206.24 234.473 206.02 234.26C205.928 234.006 205.789 233.772 205.61 233.57C205.61 233.45 205.53 233.36 205.37 233.29C205.316 233.192 205.285 233.082 205.28 232.97C205.28 232.63 205.58 232.41 206.16 232.32C206.16 232.193 206.36 232.083 206.76 231.99C206.76 231.99 206.84 231.88 207 231.76H207.55C207.726 231.538 207.928 231.336 208.15 231.16H208.43C208.68 231.31 208.8 231.44 208.8 231.53C209.02 231.783 209.13 231.953 209.13 232.04C209.13 232.127 209.3 232.327 209.64 232.64C209.7 232.64 209.78 232.77 209.87 233.01C209.94 233.01 210.09 233.21 210.33 233.61L210.56 233.99C210.65 233.99 210.72 234.11 210.79 234.36C210.92 234.41 211.04 234.59 211.16 234.91C211.26 234.91 211.37 235.07 211.49 235.37C211.651 235.52 211.762 235.715 211.81 235.93C211.923 235.93 212.033 236.1 212.14 236.44C212.22 236.44 212.34 236.62 212.51 236.99C212.648 237.13 212.742 237.307 212.78 237.5C212.89 237.5 213 237.69 213.11 238.06C213.22 238.06 213.33 238.24 213.43 238.62C213.521 238.668 213.596 238.743 213.646 238.833C213.696 238.924 213.718 239.027 213.71 239.13C213.81 239.13 213.93 239.34 214.08 239.73C214.16 239.73 214.28 239.96 214.45 240.38C214.54 240.38 214.64 240.56 214.73 240.93C214.81 240.93 214.92 241.14 215.05 241.49C215.13 241.49 215.22 241.68 215.33 242.04C215.511 242.238 215.638 242.479 215.7 242.74C215.79 242.74 215.88 242.94 215.98 243.34C216.1 243.34 216.2 243.57 216.3 243.99C216.46 243.99 216.54 244.09 216.54 244.31C216.54 244.53 216.33 244.56 215.93 244.68C215.93 244.84 215.66 244.91 215.1 244.91C215.065 244.993 215.006 245.063 214.932 245.113C214.857 245.163 214.77 245.189 214.68 245.19C214.28 245.19 214.02 245.3 213.9 245.52C213.38 245.52 213.07 245.62 212.97 245.84H212.6C212.54 245.84 212.44 245.65 212.32 245.28C212.2 245.28 212.11 245.07 212.04 244.64C211.92 244.64 211.81 244.4 211.72 243.94C211.64 243.94 211.55 243.82 211.44 243.57H211.35C210.901 243.596 210.46 243.705 210.05 243.89H209.59C208.744 243.854 207.898 243.965 207.09 244.22H206.58C205.645 244.193 204.711 244.287 203.8 244.5C202.688 244.504 201.576 244.564 200.47 244.68H200.19C200.059 244.762 199.918 244.826 199.77 244.87C199.77 244.87 199.77 244.87 199.77 244.87C199.46 244.87 199.22 244.87 199.07 244.87H198.61C197.411 244.82 196.211 244.927 195.04 245.19C194.981 245.206 194.919 245.206 194.86 245.19C194.42 245.19 194.05 245.19 193.74 245.19H192.63C192.53 245.19 192.43 244.88 192.36 244.27C192.166 243.638 192.072 242.981 192.08 242.32C192.01 242.32 191.95 242.13 191.89 241.76V241.63C191.89 241.47 192.28 241.39 193.05 241.39H193.7C194.35 241.39 194.7 241.32 194.7 241.16C194.7 241 194.82 241 195.07 240.93C195.068 240.81 195.097 240.691 195.155 240.586C195.213 240.481 195.298 240.393 195.4 240.33C195.394 240.201 195.415 240.072 195.461 239.952C195.508 239.831 195.579 239.722 195.67 239.63C195.736 239.278 195.861 238.94 196.04 238.63C196.063 238.404 196.161 238.192 196.32 238.03C196.353 237.765 196.449 237.511 196.6 237.29C196.648 237.013 196.743 236.746 196.88 236.5C196.97 236.5 197.05 236.25 197.11 235.76C197.22 235.76 197.33 235.48 197.43 234.93C197.53 234.93 197.66 234.6 197.8 233.93C197.91 233.93 198 233.66 198.08 233.14C198.2 233.14 198.31 232.84 198.41 232.26C198.51 232.26 198.61 231.95 198.73 231.33C198.84 231.33 198.95 231.02 199.05 230.41C199.17 230.41 199.28 230.08 199.38 229.41C199.52 229.41 199.63 229.09 199.7 228.41C199.84 228.41 199.95 228.09 200.03 227.41C200.14 227.41 200.25 227.08 200.35 226.41C200.47 226.41 200.57 226.07 200.68 225.41C200.79 225.41 200.9 225.05 201 224.34C201.12 224.34 201.22 224.03 201.28 223.41C201.395 223.333 201.531 223.291 201.67 223.29Z" fill="#231F20"/>
<path d="M219.59 224.26H241.4C241.611 224.342 241.802 224.468 241.96 224.63C242.098 224.8 242.268 224.943 242.46 225.05C242.521 225.221 242.616 225.377 242.74 225.51C242.555 225.813 242.445 226.156 242.42 226.51C242.31 226.51 242.19 226.81 242.05 227.39C241.95 227.39 241.86 227.61 241.77 228.04C241.64 228.04 241.53 228.26 241.45 228.69C241.33 228.69 241.21 228.89 241.08 229.29C241.08 229.29 240.91 229.49 240.71 229.89C240.63 229.89 240.55 230.03 240.47 230.31C240.34 230.31 240.25 230.43 240.2 230.68C240.13 230.68 239.98 230.86 239.73 231.24C239.48 231.62 239.32 231.7 239.27 231.7C239.271 231.778 239.242 231.854 239.191 231.913C239.139 231.972 239.068 232.01 238.99 232.02C238.99 232.16 238.88 232.29 238.67 232.39C238.67 232.52 238.39 232.81 237.83 233.27C237.602 233.537 237.34 233.772 237.05 233.97C237.05 234.06 236.94 234.15 236.72 234.25C236.72 234.31 236.58 234.43 236.31 234.62C236.31 234.68 236.18 234.79 235.94 234.94L235.47 235.31C235.47 235.38 235.35 235.46 235.1 235.54C235.1 235.67 234.98 235.77 234.73 235.82C234.73 235.97 234.55 236.07 234.18 236.14C234.18 236.33 234.04 236.42 233.76 236.42C233.683 236.528 233.588 236.623 233.48 236.7H233.34C233.09 236.7 232.92 236.51 232.83 236.14C232.68 236.14 232.57 236.02 232.51 235.77C232.4 235.77 232.25 235.59 232.05 235.22L231.72 234.8L231.49 234.52H231.44C231.35 234.52 231.24 235.09 231.12 236.24C231.03 236.24 230.92 236.62 230.8 237.39C230.69 237.39 230.59 237.69 230.47 238.27C230.39 238.27 230.27 238.52 230.1 239.02C230.03 239.02 229.94 239.18 229.82 239.52C229.74 239.52 229.63 239.71 229.5 240.08C229.266 240.33 229.064 240.609 228.9 240.91C228.83 240.91 228.72 241.04 228.57 241.28C228.117 241.8 227.622 242.282 227.09 242.72C227.09 242.79 226.97 242.87 226.72 242.95C226.72 243.11 226.61 243.18 226.4 243.18C226.4 243.32 226.18 243.46 225.79 243.6V243.78H225.56C225.356 243.99 225.095 244.136 224.81 244.2C224.81 244.33 224.6 244.44 224.17 244.53C224.17 244.68 223.97 244.77 223.56 244.8C223.44 244.919 223.295 245.01 223.136 245.067C222.978 245.124 222.808 245.145 222.64 245.13C222.64 245.3 222.3 245.42 221.64 245.5C221.64 245.65 221.44 245.73 221.04 245.73C220.85 245.73 220.71 245.48 220.62 244.99C220.52 244.99 220.4 244.74 220.25 244.25C220.18 244.25 220.07 244.02 219.93 243.55C219.8 243.55 219.74 243.45 219.74 243.23L219.79 243C219.759 242.879 219.743 242.755 219.74 242.63C219.931 242.581 220.106 242.485 220.25 242.35C220.67 242.35 220.95 242.25 221.08 242.03C221.229 242.044 221.378 242.021 221.516 241.964C221.654 241.906 221.775 241.816 221.87 241.7C221.997 241.708 222.123 241.682 222.237 241.626C222.351 241.57 222.449 241.485 222.52 241.38C222.639 241.381 222.756 241.352 222.861 241.297C222.966 241.241 223.055 241.159 223.12 241.06C223.233 241.053 223.342 241.019 223.439 240.962C223.537 240.904 223.619 240.825 223.68 240.73C223.82 240.73 223.97 240.62 224.14 240.41C224.708 239.997 225.207 239.498 225.62 238.93L225.85 238.6C225.906 238.427 226.002 238.269 226.13 238.14C226.209 237.893 226.32 237.658 226.46 237.44C226.497 237.157 226.608 236.888 226.78 236.66C226.85 236.04 226.94 235.73 227.06 235.73C227.145 234.968 227.269 234.21 227.43 233.46C227.43 232.81 227.43 232.29 227.43 231.89V229.11C227.43 228.89 227.57 228.78 227.85 228.78H231.14C231.42 228.78 231.56 228.89 231.56 229.11V233C231.548 233.295 231.514 233.589 231.46 233.88H231.56C231.744 233.7 231.962 233.557 232.2 233.46C232.2 233.33 232.33 233.26 232.57 233.23C232.57 233.11 232.68 232.99 232.9 232.86C232.9 232.74 233.05 232.62 233.27 232.49C233.27 232.36 233.42 232.24 233.73 232.11C233.73 232.01 233.86 231.92 234.1 231.84C234.1 231.7 234.23 231.61 234.47 231.56C234.47 231.41 234.6 231.3 234.84 231.24C234.84 231.07 234.95 230.95 235.17 230.86C235.17 230.72 235.26 230.61 235.45 230.54C235.652 230.165 235.916 229.827 236.23 229.54C236.23 229.48 236.29 229.4 236.42 229.31C236.467 229.123 236.581 228.959 236.74 228.85C236.909 228.621 237.05 228.372 237.16 228.11C237.16 228.04 237.24 227.99 237.39 227.97V227.78L237.34 227.69L237.25 227.74H219.68C219.4 227.74 219.26 227.63 219.26 227.41V224.68C219.26 224.4 219.37 224.26 219.59 224.26Z" fill="#231F20"/>
<path d="M8.31 166.11L2 152.7H7L8.86 157.49C9.42 159.05 9.96 160.49 10.56 162.11H10.68C11.28 160.5 11.87 159.05 12.44 157.49L14.31 152.7H19.23L13 166.11V173.55H8.28999L8.31 166.11Z" fill="#231F20"/>
<path d="M26.19 163.89V152.7H30.91V164.37C30.91 168.45 32.19 169.86 34.52 169.86C36.85 169.86 38.22 168.45 38.22 164.37V152.7H42.76V163.89C42.76 170.89 39.92 173.89 34.52 173.89C29.12 173.89 26.19 170.89 26.19 163.89Z" fill="#231F20"/>
<path d="M0.380005 177.3H5.52L8.89999 186.56C9.31999 187.79 9.69001 189.13 10.1 190.41H10.23C10.65 189.13 11 187.79 11.42 186.56L14.7 177.3H19.84V198.14H15.55V190.5C15.55 188.5 15.93 185.43 16.15 183.41H16L14.29 188.35L11.34 196.35H8.73L5.78 188.35L4.11 183.41H4C4.22 185.41 4.60001 188.41 4.60001 190.5V198.14H0.369995L0.380005 177.3Z" fill="#231F20"/>
<path d="M24.75 177.3H29.89L33.27 186.56C33.69 187.79 34.05 189.13 34.47 190.41H34.6C35.02 189.13 35.37 187.79 35.79 186.56L39.06 177.3H44.21V198.14H39.92V190.5C39.92 188.5 40.3 185.43 40.52 183.41H40.39L38.68 188.35L35.68 196.35H33.07L30.07 188.35L28.4 183.41H28.27C28.5 185.41 28.88 188.41 28.88 190.5V198.14H24.65L24.75 177.3Z" fill="#231F20"/>
</svg>
